<svg width="72" height="72" viewBox="0 0 72 72" fill="none" xmlns="http://www.w3.org/2000/svg">
<path d="M12.6211 30L11.5591 31.062L10.5001 30L11.5591 28.938L12.6211 30ZM62.1211 54C62.1211 54.3978 61.9631 54.7793 61.6818 55.0606C61.4004 55.342 61.0189 55.5 60.6211 55.5C60.2233 55.5 59.8417 55.342 59.5604 55.0606C59.2791 54.7793 59.1211 54.3978 59.1211 54H62.1211ZM26.5591 46.062L11.5591 31.062L13.6831 28.938L28.6831 43.938L26.5591 46.062ZM11.5591 28.938L26.5591 13.938L28.6831 16.062L13.6831 31.062L11.5591 28.938ZM12.6211 28.5H42.6211V31.5H12.6211V28.5ZM62.1211 48V54H59.1211V48H62.1211ZM42.6211 28.5C47.7928 28.5 52.7527 30.5544 56.4097 34.2114C60.0666 37.8684 62.1211 42.8283 62.1211 48H59.1211C59.1211 43.6239 57.3827 39.4271 54.2884 36.3327C51.194 33.2384 46.9972 31.5 42.6211 31.5V28.5Z" fill="white"/>
</svg>
