<svg width="72" height="72" viewBox="0 0 72 72" fill="none" xmlns="http://www.w3.org/2000/svg">
<path d="M36 60C29.6348 60 23.5303 57.4714 19.0294 52.9706C14.5286 48.4697 12 42.3652 12 36C12 29.6348 14.5286 23.5303 19.0294 19.0294C23.5303 14.5286 29.6348 12 36 12C42.3652 12 48.4697 14.2757 52.9706 18.3265C57.4714 22.3773 60 27.8713 60 33.6C60 36.7826 58.7357 39.8348 56.4853 42.0853C54.2348 44.3357 51.1826 45.6 48 45.6H42.6C41.82 45.6 41.0554 45.8172 40.3919 46.2273C39.7284 46.6373 39.1922 47.2241 38.8434 47.9217C38.4946 48.6193 38.3469 49.4003 38.417 50.1772C38.487 50.954 38.772 51.696 39.24 52.32L39.96 53.28C40.428 53.904 40.713 54.646 40.783 55.4228C40.8531 56.1997 40.7054 56.9807 40.3566 57.6783C40.0078 58.3759 39.4716 58.9627 38.8081 59.3727C38.1446 59.7828 37.38 60 36.6 60H36Z" stroke="white" stroke-width="2" stroke-linecap="round" stroke-linejoin="round"/>
<path d="M39.5999 24C40.2626 24 40.7999 23.4627 40.7999 22.8C40.7999 22.1372 40.2626 21.6 39.5999 21.6C38.9372 21.6 38.3999 22.1372 38.3999 22.8C38.3999 23.4627 38.9372 24 39.5999 24Z" fill="white" stroke="white" stroke-width="2" stroke-linecap="round" stroke-linejoin="round"/>
<path d="M49.2 33.6C49.8627 33.6 50.4 33.0627 50.4 32.4C50.4 31.7372 49.8627 31.2 49.2 31.2C48.5373 31.2 48 31.7372 48 32.4C48 33.0627 48.5373 33.6 49.2 33.6Z" fill="white" stroke="white" stroke-width="2" stroke-linecap="round" stroke-linejoin="round"/>
<path d="M22.8001 38.4C23.4628 38.4 24.0001 37.8627 24.0001 37.2C24.0001 36.5373 23.4628 36 22.8001 36C22.1374 36 21.6001 36.5373 21.6001 37.2C21.6001 37.8627 22.1374 38.4 22.8001 38.4Z" fill="white" stroke="white" stroke-width="2" stroke-linecap="round" stroke-linejoin="round"/>
<path d="M27.5999 26.4C28.2626 26.4 28.7999 25.8627 28.7999 25.2C28.7999 24.5373 28.2626 24 27.5999 24C26.9372 24 26.3999 24.5373 26.3999 25.2C26.3999 25.8627 26.9372 26.4 27.5999 26.4Z" fill="white" stroke="white" stroke-width="2" stroke-linecap="round" stroke-linejoin="round"/>
</svg>
