<svg width="72" height="72" viewBox="0 0 72 72" fill="none" xmlns="http://www.w3.org/2000/svg">
<path d="M36 24.5556V58M36 24.5556C36 22.0213 34.9886 19.5908 33.1882 17.7988C31.3879 16.0067 28.9461 15 26.4 15H14.4C13.7635 15 13.153 15.2517 12.7029 15.6997C12.2529 16.1477 12 16.7553 12 17.3889V48.4444C12 49.078 12.2529 49.6856 12.7029 50.1336C13.153 50.5816 13.7635 50.8333 14.4 50.8333H28.8C30.7096 50.8333 32.5409 51.5884 33.8912 52.9324C35.2414 54.2764 36 56.0993 36 58M36 24.5556C36 22.0213 37.0114 19.5908 38.8118 17.7988C40.6121 16.0067 43.0539 15 45.6 15H57.6C58.2365 15 58.847 15.2517 59.2971 15.6997C59.7471 16.1477 60 16.7553 60 17.3889V48.4444C60 49.078 59.7471 49.6856 59.2971 50.1336C58.847 50.5816 58.2365 50.8333 57.6 50.8333H43.2C41.2904 50.8333 39.4591 51.5884 38.1088 52.9324C36.7586 54.2764 36 56.0993 36 58" stroke="white" stroke-width="2" stroke-linecap="round" stroke-linejoin="round"/>
</svg>
