<svg width="72" height="72" viewBox="0 0 72 72" fill="none" xmlns="http://www.w3.org/2000/svg">
<path d="M43.9212 16L39.3212 20.6C38.2219 21.7216 37.6061 23.2295 37.6061 24.8C37.6061 26.3705 38.2219 27.8784 39.3212 29L42.9212 32.6C44.0428 33.6994 45.5507 34.3151 47.1212 34.3151C48.6917 34.3151 50.1997 33.6994 51.3212 32.6L55.9212 28M41.9212 42L18.5212 18.6C17.723 19.3821 17.0888 20.3156 16.6559 21.3459C16.223 22.3762 16 23.4825 16 24.6C16 25.7175 16.223 26.8238 16.6559 27.8541C17.0888 28.8844 17.723 29.8179 18.5212 30.6L33.1212 45.2C34.5212 46.6 37.1212 46.6 38.7212 45.2L41.9212 42ZM41.9212 42L55.9212 56M16.1212 55.6L28.9212 43M49.9212 22L35.9212 36" stroke="white" stroke-width="2" stroke-linecap="round" stroke-linejoin="round"/>
</svg>
