<svg width="72" height="72" viewBox="0 0 72 72" fill="none" xmlns="http://www.w3.org/2000/svg">
<path d="M58.8961 43.1999H48.0001C46.7271 43.1999 45.5062 43.7057 44.606 44.6058C43.7058 45.506 43.2001 46.7269 43.2001 47.9999V58.8959M24.0001 15.2159V19.1999C24.0001 21.1095 24.7587 22.9408 26.1089 24.2911C27.4592 25.6414 29.2906 26.3999 31.2001 26.3999C32.4732 26.3999 33.6941 26.9057 34.5942 27.8058C35.4944 28.706 36.0001 29.9269 36.0001 31.1999C36.0001 33.8399 38.1601 35.9999 40.8001 35.9999C42.0732 35.9999 43.2941 35.4942 44.1942 34.5941C45.0944 33.6939 45.6001 32.473 45.6001 31.1999C45.6001 28.5599 47.7601 26.3999 50.4001 26.3999H58.0081M33.6001 59.8799V50.3999C33.6001 49.1269 33.0944 47.906 32.1942 47.0058C31.2941 46.1057 30.0732 45.5999 28.8001 45.5999C27.5271 45.5999 26.3062 45.0942 25.406 44.1941C24.5058 43.2939 24.0001 42.073 24.0001 40.7999V38.3999C24.0001 37.1269 23.4944 35.906 22.5942 35.0058C21.6941 34.1057 20.4732 33.5999 19.2001 33.5999H12.1201" stroke="white" stroke-width="2" stroke-linecap="round" stroke-linejoin="round"/>
<path d="M36 60C49.2548 60 60 49.2548 60 36C60 22.7452 49.2548 12 36 12C22.7452 12 12 22.7452 12 36C12 49.2548 22.7452 60 36 60Z" stroke="white" stroke-width="2" stroke-linecap="round" stroke-linejoin="round"/>
</svg>
