<svg width="64" height="64" viewBox="0 0 64 64" fill="none" xmlns="http://www.w3.org/2000/svg">
<path d="M43.94 26.6157C43.5832 22.507 41.6536 18.6947 38.5538 15.9744C35.4541 13.254 31.4236 11.8356 27.3034 12.0152C23.1831 12.1948 19.2913 13.9584 16.44 16.9381C13.5886 19.9179 11.998 23.8835 12 28.0077C12 37.3877 21.774 47.1317 26.044 50.9437M50.756 41.2597C51.5527 40.463 52.0003 39.3824 52.0003 38.2557C52.0003 37.129 51.5527 36.0484 50.756 35.2517C49.9593 34.455 48.8787 34.0074 47.752 34.0074C46.6253 34.0074 45.5447 34.455 44.748 35.2517L36.728 43.2757C36.2525 43.7509 35.9044 44.3384 35.716 44.9837L34.042 50.7237C33.9918 50.8958 33.9888 51.0782 34.0333 51.2519C34.0778 51.4255 34.1681 51.584 34.2949 51.7108C34.4217 51.8376 34.5802 51.9279 34.7538 51.9724C34.9275 52.0169 35.1099 52.0139 35.282 51.9637L41.022 50.2897C41.6673 50.1013 42.2548 49.7532 42.73 49.2777L50.756 41.2597Z" stroke="white" stroke-width="2" stroke-linecap="round" stroke-linejoin="round"/>
<path d="M28 34.0078C31.3137 34.0078 34 31.3215 34 28.0078C34 24.6941 31.3137 22.0078 28 22.0078C24.6863 22.0078 22 24.6941 22 28.0078C22 31.3215 24.6863 34.0078 28 34.0078Z" stroke="white" stroke-width="2" stroke-linecap="round" stroke-linejoin="round"/>
</svg>
