<svg width="72" height="72" viewBox="0 0 72 72" fill="none" xmlns="http://www.w3.org/2000/svg">
<path d="M34.7368 57.4737C30.3008 57.4871 26.0217 55.8328 22.7483 52.8389C19.4748 49.8451 17.4461 45.7302 17.0646 41.3106C16.683 36.8909 17.9765 32.4893 20.6884 28.9787C23.4003 25.4681 27.3325 23.1049 31.7053 22.3579C46.1053 19.5789 49.8947 18.2653 54.9474 12C57.4737 17.0526 60 22.56 60 32.2105C60 46.1053 47.9242 57.4737 34.7368 57.4737Z" stroke="white" stroke-width="2" stroke-linecap="round" stroke-linejoin="round"/>
<path d="M12 60C12 52.4211 16.6737 46.459 24.8337 44.8421C30.9474 43.6295 37.2632 39.7895 39.7895 37.2632" stroke="white" stroke-width="2" stroke-linecap="round" stroke-linejoin="round"/>
</svg>
