<svg width="72" height="72" viewBox="0 0 72 72" fill="none" xmlns="http://www.w3.org/2000/svg">
<path d="M36.0043 31.1948H16.8009C14.1494 31.1948 12 33.3442 12 35.9957V55.1992C12 57.8506 14.1494 60 16.8009 60H36.0043C38.6558 60 40.8052 57.8506 40.8052 55.1992V35.9957C40.8052 33.3442 38.6558 31.1948 36.0043 31.1948Z" stroke="white" stroke-width="2" stroke-linecap="round" stroke-linejoin="round"/>
<path d="M50.215 40.7965L58.6165 32.395C59.5071 31.4072 60.0001 30.1244 60.0001 28.7944C60.0001 27.4643 59.5071 26.1815 58.6165 25.1937L46.6143 13.3836C45.6265 12.4929 44.3437 12 43.0137 12C41.6836 12 40.4008 12.4929 39.413 13.3836L31.2035 21.5931M21.6018 50.3983H21.6258M31.2035 40.7965H31.2275M43.2057 21.5931H43.2297M50.407 28.7944H50.431" stroke="white" stroke-width="2" stroke-linecap="round" stroke-linejoin="round"/>
</svg>
